/* XPM */
static char *carrelage[] = {
/* columns rows colors chars-per-pixel */
"50 50 73 1 ",
"  c #1C1F1C",
". c #1E231E",
"X c #20241F",
"o c #1F2420",
"O c #222521",
"+ c #252924",
"@ c #292E27",
"# c #272C28",
"$ c #2A2E2A",
"% c #2D312D",
"& c #30322F",
"* c #2F3431",
"= c #323532",
"- c #353835",
"; c #373B38",
": c #3A3D3A",
"> c #3C413D",
", c #3F4340",
"< c #424643",
"1 c #464A46",
"2 c #484B47",
"3 c #474A48",
"4 c #4A4D4A",
"5 c #4E514E",
"6 c #50524F",
"7 c #535653",
"8 c #565956",
"9 c #585A57",
"0 c #575A58",
"q c #5B5D5B",
"w c #5D605E",
"e c #626562",
"r c #666966",
"t c #686967",
"y c #676968",
"u c #6A6C6A",
"i c #6F716F",
"p c #6F7270",
"a c #727472",
"s c #767877",
"d c #787977",
"f c #7B7C7C",
"g c #7E807F",
"h c #838583",
"j c #868887",
"k c #878989",
"l c #8B8D8C",
"z c #939493",
"x c #969896",
"c c #9C9E9D",
"v c gray65",
"b c #A6A9A7",
"n c #ABACAB",
"m c #ADB0AE",
"M c #B3B5B3",
"N c #B6B8B6",
"B c #BABCBB",
"V c #BEC0BF",
"C c #BFC1C0",
"Z c #C3C4C3",
"A c #C7C8C7",
"S c #CBCCCB",
"D c #CFD0D0",
"F c #D4D5D4",
"G c #D7D8D7",
"H c #DBDCDC",
"J c #DFE1DF",
"K c #DFE0E0",
"L c #E3E4E3",
"P c #E6E8E7",
"I c #E7E7E8",
"U c #E7E9E8",
"Y c #ECECEC",
/* pixels */
"YYYYY-%%%@7SYFe$@@@>YYYYYYYYYY>@$@$eGYA6@@+$;YYYYP",
"YYYYY%XrFYYYYYYYJaX%YYYYYYYYYY@+aHYYYYYYYFrX=YYYYJ",
"YYYYJzYYYYYYYYYYYYYdHYYYYYYYYGhYYYYYYYYYYYYYkLYYYJ",
"YYYLX.YYYYYYYYYYYYY..PYYYYYYL..YYYYYYYYYYYYY..PYYL",
"YYJ...aYYYYYYYYYYYe..XLYYYYJ...uYYYYYYYYYYYr...LYK",
"%$xXX.XUYYYYYYYYYY....z@$%$l....YYYYYYYYYYY....x$$",
"++YYs.X9YYYYYYYYY5..uYYX..OYYr..0YYYYYYYYY5..sYYO.",
"+uYYYUw.PYYYYYYYH.7YYYYw..uYYYY5.KYYYYYYYL.wYYYY0.",
"+FYYYYYPsYYYYYYY0UYYYYYG..HYYYYYP0YYYYYYYiPYYYYYS ",
"+YYYYYYYY%ZYYYA%YYYYYYYY.OYYYYYYYY*SYYYZ$YYYYYYYY.",
"6YYYYYYYYAX+N%.SYYYYYYYY<4YYYYYYYYZ.$M+XDYYYYYYYY:",
"SYYYYYYYYY@X..*YYYYYYYYYMBYYYYYYYYY%O..$YYYYYYYYYm",
"YYYYYYYYYYM.X.NYYYYYYYYYYYYYYYYYYYYn...ZYYYYYYYYYJ",
"FYYYYYYYYY$...%YYYYYYYYYBZYYYYYYYYY%...=YYYYYYYYYZ",
"qYYYYYYYYZ.-B=.ZYYYYYYYY<2YYYYYYYYBX&N&.FYYYYYYYY2",
"+YYYYYYYY&DYYYZ&YYYYYYYY..YYYYYYYY$ZYYYZ&YYYYYYYY ",
"+GYYYYYG0YYYYYYY0HYYYYYF..GYYYYYGqYYYYYYY7KYYYYYFo",
"+pYYYY4oIYYYYYYYK.4YYYY0..eYYYY1.LYYYYYYYPo0YYYYw ",
"++YYqo.0YYYYYYYYY4..qYY.X..YY8..8YYYYYYYYY3XXtYYo ",
":%aO..OYYYYYYYYYYY....g>-->f....YYYYYYYYYYIX...g%*",
"YYJX.XuYYYYYYYYYYYqo.oPYYYYP...uYYYYYYYYYYYq.X.JYG",
"YYYP.OYYYYYYYYYYYYY.oLYYYYYYJ..YYYYYYYYYYYYY.XYYYG",
"YYYYLxYYYYYYYYYYYYYgUYYYYYYYYLkYYYYYYYYYYYYYhLYYYG",
"YYYYY#OqGYYYYYYYD8.>YYYYYYYYYY-XwGYYYYYYYGqX%YYYYG",
"YYYYY%..XX,nYM>....=YYYYYYYYYY%....1BYm>....=YYYYH",
"YYYYY%...O6VYZ7O...=YYYYYYYYYY%...X5ZYB4o..o=YYYYG",
"YYYYY@+iKYYYYYYYHrO>YYYYYYYYYY-OrHYYYYYYYGyO*YYYYG",
"YYYYHlYYYYYYYYYYYYYsLYYYYYYYYLjYYYYYYYYYYYYYgLYYYG",
"YYYLX.YYYYYYYYYYYYU..LYYYYYYH..YYYYYYYYYYYYYooIYYG",
"YYG..XeYYYYYYYYYYY8.O.PYYYYJ...eYYYYYYYYYYY9oo.HYF",
"%#j....YYYYYYYYYYP..X.l=%%=h....YYYYYYYYYYU.oo k##",
"++YYi..5YYYYYYYYY1..uYYX..OYYe..7YYYYYYYYY1. aYYO ",
"OsYYYYw.PYYYYYYYGO0YYYY0..uYYYY5OKYYYYYYYL.wYYYYy ",
"OJYYYYYLqYYYYYYYqPYYYYYG..HYYYYYKeYYYYYYY8LYYYYYF ",
"+YYYYYYYY%CYYYM&YYYYYYYYoOYYYYYYYY$BYYYV=YYYYYYYY ",
"eYYYYYYYYSX$b$.SYYYYYYYY<7YYYYYYYYBO%n$.FYYYYYYYY4",
"GYYYYYYYYY&...-YYYYYYYYYBAYYYYYYYYY%...-YYYYYYYYYB",
"YYYYYYYYYYM...BYYYYYYYYYYYYYYYYYYYYb...VYYYYYYYYYF",
"AYYYYYYYYY+...&YYYYYYYYYbBYYYYYYYYY#...$YYYYYYYYYn",
"1YYYYYYYYV.%Z&.SYYYYYYYY>5YYYYYYYYBO-Z@.SYYYYYYYY;",
"+YYYYYYYY&DYYYD&YYYYYYYYXXYYYYYYYY=FYYYA=YYYYYYYY ",
"+DYYYYYJsYYYYYYY7LYYYYYF XJYYYYYL8YYYYYYYuLYYYYYA ",
"XeYYYP5.PYYYYYYYHX4IYYY0XXuYYYP<.LYYYYYYYL.8IYYY0 ",
"+XYYe..eYYYYYYYYY7X.qYY.XXOYI7X.rYYYYYYYYY7.OiYYo ",
">-h....YYYYYYYYYYIO...k&==&f .XXYYYYYYYYYYY.o..l&$",
"YYL.XXgYYYYYYYYYYYe..OPYYYYL...sYYYYYYYYYYYu..OIYF",
"YYYLXXYYYYYYYYYYYYY.XIYYYYYYLOoYYYYYYYYYYYYY.XUYYF",
"YYYYLcYYYYYYYYYYYYYfLYYYYYYYYHlYYYYYYYYYYYYYlPYYYF",
"YYYYY$OqAYYYYYYYFeX$YYYYYYYYYY#OrGYYYYYYYA8o=YYYYF",
"LJJJJ@....>MHB3O...*HHHHHHHHHH# .  3BDv-    %SDSSB"
};
