/* XPM */
static char *lasagnes[] = {
/* columns rows colors chars-per-pixel */
"50 50 230 2 ",
"   c #712F12",
".  c #5E1608",
"X  c #327528",
"o  c #697D2A",
"O  c #821E0B",
"+  c #8C1B0A",
"@  c #9B1A0A",
"#  c #B80E04",
"$  c #A81507",
"%  c #B81706",
"&  c #84230D",
"*  c #8A240E",
"=  c #8B2C0F",
"-  c #94260D",
";  c #8F320F",
":  c #8E2C11",
">  c #8C2711",
",  c #942B13",
"<  c #933511",
"1  c #963913",
"2  c #9A3D14",
"3  c #993218",
"4  c #92360F",
"5  c #A1351A",
"6  c #A7371C",
"7  c #B22F0F",
"8  c #AD3E21",
"9  c #B83D24",
"0  c #953F22",
"q  c #DB0501",
"w  c #D40B03",
"e  c #D81808",
"r  c #CD0C03",
"t  c #DB2909",
"y  c #CF360F",
"u  c #E2380D",
"i  c #C03A22",
"p  c #9B4312",
"a  c #9D4812",
"s  c #AA441D",
"d  c #A24616",
"f  c #A85715",
"g  c #866C16",
"h  c #997918",
"j  c #8D6D0E",
"k  c #B86E1A",
"l  c #BC4325",
"z  c #B94926",
"x  c #BF5022",
"c  c #A97525",
"v  c #877B2B",
"b  c #CB5412",
"n  c #E35912",
"m  c #D76519",
"M  c #C3791B",
"N  c #D4711B",
"B  c #E46617",
"V  c #EC7517",
"C  c #C44D2C",
"Z  c #C74B2B",
"A  c #C3512B",
"S  c #CA522E",
"D  c #C45826",
"F  c #CD5531",
"G  c #C75A33",
"H  c #D25933",
"J  c #CB6C26",
"K  c #D97923",
"L  c #D8673D",
"P  c #CF7A2F",
"I  c #E57B24",
"U  c #D26C40",
"Y  c #DC7645",
"T  c #E17C4A",
"R  c #1A922A",
"E  c #26982A",
"W  c #3D9429",
"Q  c #328E2B",
"!  c #37A629",
"~  c #31A62B",
"^  c #46992B",
"/  c #458D34",
"(  c #4B9736",
")  c #539C39",
"_  c #5B8C28",
"`  c #639633",
"'  c #48AA28",
"]  c #4DB227",
"[  c #55B72A",
"{  c #58A937",
"}  c #5BBC34",
"|  c #5CB739",
" . c #4BAE31",
".. c #65BE37",
"X. c #69B335",
"o. c #56C129",
"O. c #5CC433",
"+. c #66C53C",
"@. c #76C73E",
"#. c #5CA842",
"$. c #6AB849",
"%. c #6CCB45",
"&. c #6DC644",
"*. c #78C946",
"=. c #77CF4D",
"-. c #B08B14",
";. c #918F31",
":. c #B09227",
">. c #8BAE35",
",. c #B2AE33",
"<. c #9E8012",
"1. c #D58A1C",
"2. c #D38F1E",
"3. c #F98D1E",
"4. c #E7981E",
"5. c #FA951C",
"6. c #FB9D1C",
"7. c #EF861C",
"8. c #DBAE18",
"9. c #FBA41C",
"0. c #FBAD1C",
"q. c #F3A91E",
"w. c #FAB41C",
"e. c #FABD1C",
"r. c #F5B51B",
"t. c #EAB71F",
"y. c #CA8821",
"u. c #D4822A",
"i. c #D79826",
"p. c #CF9733",
"a. c #E68826",
"s. c #F48B24",
"d. c #E99423",
"f. c #FA9223",
"g. c #FC9C24",
"h. c #FB952A",
"j. c #FD9C2C",
"k. c #F49727",
"l. c #ED9534",
"z. c #FC9C33",
"x. c #F69C36",
"c. c #E88E32",
"v. c #DEA536",
"b. c #D3AB2F",
"n. c #E4A322",
"m. c #E4AB2D",
"M. c #E8A927",
"N. c #FDA324",
"B. c #FCAA24",
"V. c #FDA42C",
"C. c #FDAC2B",
"Z. c #F4A723",
"A. c #EBB927",
"S. c #FBB323",
"D. c #FBBC24",
"F. c #F9B629",
"G. c #E9A635",
"H. c #FCA434",
"J. c #FEAB32",
"K. c #FDA23B",
"L. c #FEAE3C",
"P. c #F3A33E",
"I. c #EBBB34",
"U. c #E7B533",
"Y. c #FDB334",
"T. c #F3BB35",
"R. c #FDBB3C",
"E. c #F9B738",
"W. c #F9C41C",
"Q. c #F2C21C",
"!. c #FBC32B",
"~. c #FAC826",
"^. c #EDC539",
"/. c #FCC334",
"(. c #FBC43B",
"). c #FCCA3D",
"_. c #F7C837",
"`. c #FAD73C",
"'. c #FBD12E",
"]. c #B9BC46",
"[. c #DE814F",
"{. c #DA9B4B",
"}. c #E78B54",
"|. c #EC965C",
" X c #E3814D",
".X c #D4AF48",
"XX c #ECA741",
"oX c #FAAA42",
"OX c #E7B646",
"+X c #FDBC42",
"@X c #FAB646",
"#X c #F2BA55",
"$X c #EE9D61",
"%X c #EFA063",
"&X c #F5A968",
"*X c #F9B16E",
"=X c #86C84A",
"-X c #81CB56",
";X c #98C34E",
":X c #AEC24C",
">X c #C8C24A",
",X c #FCC344",
"<X c #FCCB44",
"1X c #FDC34B",
"2X c #FCCD4D",
"3X c #F5C54B",
"4X c #FBD644",
"5X c #FCDA44",
"6X c #FDD34B",
"7X c #FBDB4A",
"8X c #FECC53",
"9X c #F9CB57",
"0X c #FDD454",
"qX c #FDDA53",
"wX c #FCD55C",
"eX c #FCDB5C",
"rX c #F6D75C",
"tX c #E8D544",
"yX c #FAE647",
"uX c #FBE75A",
"iX c #FEF748",
"pX c #FEDB62",
"aX c #FED967",
"sX c #EAC460",
"dX c #FEE566",
"fX c #FFEB74",
"gX c #FDE776",
"hX c #FFF37C",
"jX c #FFF884",
"kX c None",
/* pixels */
"kXkXkXkXkXkXkXkXkXkXkXkXkXkXkXkXkXkXkXkXkXkXkXkXkXkXkXkXkXkXkXkXkXkXkXkXkXkXkXkXkXkXkXkXkXkXkXkXkXkX",
"kXkXkXkXkXkXkXkXkXkXkXkXkXkXkXkXkXkXkXkXkXkXkXkXkXkXkXkXkXkXkXkXkXkXkXkXkXkXkXkXkXkXkXkXkXkXkXkXkXkX",
"kXkXkXkXkXkXkXkXkXkXkXkXkXkXkXkXkXkXkXkXkXkXkXkXkXkXkXkXkXkXkXkXkXkXkXkXkXkXkXkXkXkXkXkXkXkXkXkXkXkX",
"kXkXkXkXkXkXkXkXkXkXkXkXkXkXkXkXkXkXkXkXkXkXkXkXkXkXkXkXkXkXkXkXkXkXkXkXkXkXkXkXkXkXkXkXkXkXkXkXkXkX",
"kXkXkXkXkXkXkXkXkXkXkXkXkXkXkXkXw.B.B.B.B.S.t.kXkXkXkXkXkXkXkXkXkXkXkXkXkXkXkXkXkXkXkXkXkXkXkXkXkXkX",
"kXkXkXkXkXkXkXkXkXkXkXkXkXkXkXw.N.g.h.h.j.V.Y.(.'.A.kXkXkXkXkXkXkXkXkXkXkXkXkXkXkXkXkXkXkXkXkXkXkXkX",
"kXkXkXkXkXkXkXkXkXkXkXkXkXkX0.g.g.j.z.z.z.K.@X+X2X7X4X`.A.kXkXkXkXkXkXkXkXkXkXkXkXkXkXkXkXkXkXkXkXkX",
"kXkXkXkXkXkXkXkXkXkXkXkXkX0.N.V.H.K.z.oXoXoX@X8XrXrXrX0X4X/.!.A.j kXkXkXkXkXkXkXkXkXkXkXkXkXkXkXkXkX",
"kXkXkXkXkXkXkXkXkXkXkXkXq.C.Y.L.oXoXoXoXoXoXoX#X9X:XrX0X2X3XE.Y.C.Z.r.r.j kXkXkXkXkXkXkXkXkXkXkXkXkX",
"kXkXkXkXkXkXkXkXkXkXkXe.F.L.R.+X@X@XoXoXXXXXx.XX.X^ ].9X3X@XE.H.g.9.5.6.9.9.0.r.j kXkXkXkXkXkXkXkXkX",
"kXkXkXkXkXkXkXkXkX8.D./.(.3X1X#X#X@XoXXXc.c.a.c.+.( ! XX@X:X=.%.%.=.+.=X>.5.6.6.N.B.-.kXkXkXkXkXkXkX",
"kXkXkXkXkXkXkXkXQ.~.).,X1X1X+X@X@XoXl.c.c.I I m O.{ } ;.&.=.O.&.%.O.$.[ o.| b.f.N.B.Y.Y.!.-.kXkXkXkX",
"kXkXkXkXkXkXkX~.!.(.(.,X+X+X+XL.P.x.l.a.I K m m %.)  .E $.o.| | ] ( ' ^ / ^ ` p.V.C.L.R.,X2XeXfXQ.kX",
"kXkXkXkXkX<.~.!.!.R.R.L.L.L.L.P.x.l.a.a.p.=X$.>.%.W $.E ( W X / ) $.-X*.=X;XX.>.L.Y.L.,X2XwXdXjX~.kX",
"kXkXkXkX<.W.~.D.F.Y.J.J.H.H.H.z.x.l..X%.O.=.$.#. .(  .X { -X*.*.-XO...X.[ { b.,XR.R.,X1XwXdXfX'.iXkX",
"kXkXkX<.W.D.D.B.C.N.N.j.j.z.z.z.x.].=.%.&.[ ] W X ^ W ! ......! ! X.[ ^ { ,X1X(.R.R.1X0XpXfXyXyX3 kX",
"kXkX8.e.r.0.9.6.5.5.f.f.f.h.k.H.;X+.o.o. ./ / -X*.| / ..R E ! ' W E ( ].<X,X1XR.+X1X2XaXfXhX5XS   kX",
"kX-.W.w.0.9.6.5.3.3.3.3.s.k.H.].=.$.{ / / =XO.=.] %.{ &.E v o o ;.G.T.(._.,X,X+X1X1XwXdXjX5Xv.T D kX",
"kXW.W.w.0.9.6.6.5.5.3.3.h.g.k.o.] ' W *.*.@.! | R #.&.) ] ;.I I d.Z.F./.(.,X,X+X8XwXaXhXyX^.Y L I.kX",
"kX'.!.e.w.0.9.9.6.5.6.f.g.g.b.{ / / -X....!  .E ` h.*.] | :.7.d.n.F.F.!./.(.,X8X9XaXgX0XuXG S 3XkXkX",
"kXkXc yX~.W.w.w.0.9.9.9.g.g.>.Q $.[ ..~ ' Q R :.z.h.f.+.W ,.4.q.S.D.D././.1X1X9XaXgXjX#XD }.OXc kXkX",
"kXkX= a I.7XqXW.e.e.w.0.q.g.o ~ } ~ ~ ! ) U.Y.J.V.j.g.N.N.q.S.S.D.!././.(.1X9XaXaXhXXXU.}.m p.C kXkX",
"kX2.r 1 1 < k qXuX4X4X~.w.9.k.d.s.k.k.V.C.Y.Y.B.V.N.N.B.B.S.S.D.!.!././.<X2XwXaXjXgXuXF %XOXz G t kX",
"kX4.b s s 6 z s f y.2.T.0X0.d.I I s.k.k.C.C.B.C.B.B.B.N.B.B.B.C.F.Y./.<X6XqXdXfXjXaXD }.G I.L y ^.kX",
"kX5X`.M.d.1.M $ , & 1 = k ).6X9XI I s.g.Z.S.S.C.B.B.N.g.g.g.g.V.J.Y.(.<X0XuXfXjX6XP C %Xv.S $XD kXkX",
"kXkX  p.^.`.7XrXG.a.r * d 2 = a _.9X#XG.q.r.W.w.C.B.g.g.f.h.h.H.J.L.1X2XeXfXjX`.I.z B v.F %XY kXkXkX",
"kXkXs 2 1 O & f m._.eX.X= 8 3 s 1 p k m.<X0X'.~.e.S.B.N.g.g.j.H.L.+X1XwXdXjX7XyXC 9 yXF }.OXD   kXkX",
"kX2.* x 6 q , 2 2 = 2 y.qXk > 3 y $ 2 < + ; M.2X0XeX~.S.C.V.H.L.@X1X8XpXgXuXdXA }.x l Y C OXH S y kX",
"kXU.u * * e Z d < = 1 2 4 U.0X9Xm.3 z @ # d 1 ; = p I.eX~.F.Y.R.1X8XpXfX~.uXJ G [.x C $Xu.P H Z V kX",
"kXkX_.4Xa.2.a - # @ A 2 2 2 ; M _.<XwXn.x 5 - # $ z 1 a U.wX6X!.D.2X'.6XyXu.$XT z H A G `.F |.9 tXkX",
"kX. p 4 I.7XrXU.n.b 6 S d 2 O < 1 = f 2XpXrX3X(.d.5 G z > 2 y.T.(.(.0Xc.F $Xy dXS H L J G T %Xv.kXkX",
"kXkX: 5 1 4 p I.eXG.t : l > q # + s 1 ; 1 k y.n._.pXn.1 u 7 z 2 < = l F Y Z F.J $XG l 9 Y Y u.kXkXkX",
"kXn.p A 6 * z ; p m.).wXn.M B n q O s p p 2 2 1 1 d T.0X<XB w < F H 6 $X$XK dXL e rXZ 9 A uXkXkXkXkX",
"kX5XU.1.b e 5 A p ;   d 7X3X,XT.T.4.% $ z 2 s + : 2 < = i.8XqXg.y 1 n w d.dXJ |.OXy.F l {.kXkXkXkXkX",
"kXkXkX5X7Xn.w 6 O $ $ s ; y.i.i.m.).3XV & H 8 w Z 2 p d & < M E.(.1X6X4XuXJ L Y tXF }.Z g kXkXkXkXkX",
"kXkXkXkXkX`.9XM % 4.# 8 p 2 p 2 ; = i.rXM 2 & A.2 F z # O > 2 & 1 O i.m.z r G uXS Y  X:.kXkXkXkXkXkX",
"kXkXkXkXkXkXkX`.rXM.n y 3 D - q * D 1 d ).0XpX(.u % % V u , p 2 1 2 & H  Xw (.P Y U ,.kXkXkXkXkXkXkX",
"kXkXkXkXkXkXkXkXkX4XeXrX3X{.M.M.# 5 C s 2 : ; m.2X0XeX<X9.r z 6 A A 3 *XF 7.4XH &X9XkXkXkXkXkXkXkXkX",
"kXkXkXkXkXkXkXkXkXkXkXkXh p._.6XrXM.7 > , O + & 1 ; 4 i.8X(.S.q - = * V eXyXz L G kXkXkXkXkXkXkXkXkX",
"kXkXkXkXkXkXkXkXkXkXkXkXkXkXkXkXg ).eXT.S.A.q # z 2 2 2 < m.,X,X1XpX).uXK l 9 &X0 kXkXkXkXkXkXkXkXkX",
"kXkXkXkXkXkXkXkXkXkXkXkXkXkXkXkXkXkXkXU.wX2Xu n 7 - A A & 2 1 < < a T.x H 9 t u.kXkXkXkXkXkXkXkXkXkX",
"kXkXkXkXkXkXkXkXkXkXkXkXkXkXkXkXkXkXkXkXkXh T.<XwX2Xa > q * 8 x 2 : l H Y e 3XkXkXkXkXkXkXkXkXkXkXkX",
"kXkXkXkXkXkXkXkXkXkXkXkXkXkXkXkXkXkXkXkXkXkXkXkXkX:.2X2X!.V e $ , , l *XU 3Xb.kXkXkXkXkXkXkXkXkXkXkX",
"kXkXkXkXkXkXkXkXkXkXkXkXkXkXkXkXkXkXkXkXkXkXkXkXkXkXkX:.E.(.<XwXY.  1 d.<Xb.kXkXkXkXkXkXkXkXkXkXkXkX",
"kXkXkXkXkXkXkXkXkXkXkXkXkXkXkXkXkXkXkXkXkXkXkXkXkXkXkXkXkXkXkXkXU.2XeXuXb.kXkXkXkXkXkXkXkXkXkXkXkXkX",
"kXkXkXkXkXkXkXkXkXkXkXkXkXkXkXkXkXkXkXkXkXkXkXkXkXkXkXkXkXkXkXkXkXkXkXkXkXkXkXkXkXkXkXkXkXkXkXkXkXkX",
"kXkXkXkXkXkXkXkXkXkXkXkXkXkXkXkXkXkXkXkXkXkXkXkXkXkXkXkXkXkXkXkXkXkXkXkXkXkXkXkXkXkXkXkXkXkXkXkXkXkX",
"kXkXkXkXkXkXkXkXkXkXkXkXkXkXkXkXkXkXkXkXkXkXkXkXkXkXkXkXkXkXkXkXkXkXkXkXkXkXkXkXkXkXkXkXkXkXkXkXkXkX",
"kXkXkXkXkXkXkXkXkXkXkXkXkXkXkXkXkXkXkXkXkXkXkXkXkXkXkXkXkXkXkXkXkXkXkXkXkXkXkXkXkXkXkXkXkXkXkXkXkXkX",
"kXkXkXkXkXkXkXkXkXkXkXkXkXkXkXkXkXkXkXkXkXkXkXkXkXkXkXkXkXkXkXkXkXkXkXkXkXkXkXkXkXkXkXkXkXkXkXkXkXkX"
};
