/* XPM */
static char *cat[] = {
/* columns rows colors chars-per-pixel */
"50 50 230 2 ",
"   c #031C14",
".  c #041207",
"X  c #2E1E0E",
"o  c #022319",
"O  c #003711",
"+  c #002E0F",
"@  c #352812",
"#  c #001F20",
"$  c #022826",
"%  c #01342C",
"&  c #013237",
"*  c #23322A",
"=  c #431F03",
"-  c #5B320B",
";  c #4F3116",
":  c #682D00",
">  c #6A3305",
",  c #773B04",
"<  c #733E12",
"1  c #6E3415",
"2  c #01481C",
"3  c #00551D",
"4  c #065229",
"5  c #006229",
"6  c #3C543F",
"7  c #784418",
"8  c #6E4210",
"9  c #584533",
"0  c #7A4D24",
"q  c #73502F",
"w  c #007C49",
"e  c #377875",
"r  c #19605B",
"t  c #536E6A",
"y  c #475940",
"u  c #863B02",
"i  c #853C1B",
"p  c #973A1A",
"a  c #872710",
"s  c #8D3622",
"d  c #AC3727",
"f  c #BA3C31",
"g  c #A92F2A",
"h  c #A8271F",
"j  c #C83632",
"k  c #CA1D1F",
"l  c #894407",
"z  c #954302",
"x  c #9D4601",
"c  c #9B4B03",
"v  c #954A09",
"b  c #884A14",
"n  c #934B13",
"m  c #8C531D",
"M  c #945113",
"N  c #9B5412",
"B  c #9C591D",
"V  c #96571C",
"C  c #9E530E",
"Z  c #A44E01",
"A  c #A55205",
"S  c #AA5505",
"D  c #A4540B",
"F  c #AD5A0E",
"G  c #AB550A",
"H  c #B25B0C",
"J  c #A55914",
"K  c #A85916",
"L  c #B35E14",
"P  c #B36115",
"I  c #BB661A",
"U  c #BD6A1D",
"Y  c #B76216",
"T  c #964A27",
"R  c #875429",
"E  c #9C5D23",
"W  c #965B27",
"Q  c #895A34",
"!  c #975C31",
"~  c #A5452A",
"^  c #A35E23",
"/  c #AC4C36",
"(  c #986738",
")  c #8D6236",
"_  c #AA6323",
"`  c #A66428",
"'  c #B76B27",
"]  c #A56931",
"[  c #A76C36",
"{  c #B66F32",
"}  c #A8703D",
"|  c #B97438",
" . c #BD712E",
".. c #C26B1E",
"X. c #C36E22",
"o. c #C47125",
"O. c #C4742C",
"+. c #CA752B",
"@. c #CA7428",
"#. c #CC7B34",
"$. c #C77B39",
"%. c #D27C33",
"&. c #CC6134",
"*. c #B23C42",
"=. c #825F40",
"-. c #876548",
";. c #996C44",
":. c #9B7249",
">. c #9A7857",
",. c #867059",
"<. c #A36B42",
"1. c #A77547",
"2. c #B77945",
"3. c #A87C54",
"4. c #B27D53",
"5. c #A1645B",
"6. c #C74041",
"7. c #C57E42",
"8. c #C57946",
"9. c #019B65",
"0. c #199B66",
"q. c #02AA76",
"w. c #13AC78",
"e. c #24875B",
"r. c #48A774",
"t. c #D4813A",
"y. c #DB853B",
"u. c #DC883E",
"i. c #CF803B",
"p. c #BB8758",
"a. c #B08356",
"s. c #98886B",
"d. c #A68767",
"f. c #B58C68",
"g. c #B79777",
"h. c #AE9274",
"j. c #C88345",
"k. c #DD8A43",
"l. c #D78A48",
"z. c #CD8A51",
"x. c #C68C57",
"c. c #D28E54",
"v. c #D89357",
"b. c #DB904F",
"n. c #E28F48",
"m. c #E18D43",
"M. c #E5924B",
"N. c #E9944D",
"B. c #E69047",
"V. c #E39552",
"C. c #EC9A54",
"Z. c #E59A5B",
"A. c #ED9E59",
"S. c #E89754",
"D. c #F09C55",
"F. c #F4A45D",
"G. c #EEA05C",
"H. c #C18E62",
"J. c #C79568",
"K. c #D89A64",
"L. c #C79D75",
"P. c #E39E63",
"I. c #F48D7C",
"U. c #CEA27A",
"Y. c #D7A376",
"T. c #DCA16E",
"R. c #EDA363",
"E. c #E8A56B",
"W. c #F2A562",
"Q. c #F5AA66",
"!. c #FAAA65",
"~. c #F3AC6D",
"^. c #FCAE6A",
"/. c #FAA661",
"(. c #FDB26D",
"). c #E7AA76",
"_. c #F3AE73",
"`. c #F5B175",
"'. c #FCB473",
"]. c #FFB975",
"[. c #F5B47C",
"{. c #FEBC7C",
"}. c #F9B77C",
"|. c #FFC17F",
" X c #02B580",
".X c #20B987",
"XX c #16C792",
"oX c #39DBA7",
"OX c #20C995",
"+X c #67F4C3",
"@X c #B09D84",
"#X c #BBA287",
"$X c #B3A490",
"%X c #8B8780",
"&X c #F39584",
"*X c #D5AB83",
"=X c #D9B899",
"-X c #C5A788",
";X c #ECB483",
":X c #FCBC83",
">X c #F6BB89",
",X c #ECBB95",
"<X c #FFC184",
"1X c #FEC48B",
"2X c #FFC88F",
"3X c #FCC594",
"4X c #FFCA94",
"5X c #FFCD9B",
"6X c #F8C598",
"7X c #FFD09E",
"8X c #E8C3A2",
"9X c #FECEA2",
"0X c #FFD3A4",
"qX c #FFD5AA",
"wX c #FFD9AF",
"eX c #FFDBB4",
"rX c #FEDDBA",
"tX c #F3D2B0",
"yX c #FFE0BE",
"uX c #D5C9BE",
"iX c #AFD4D3",
"pX c #FFE3C4",
"aX c #FFE6CA",
"sX c #FFE9CE",
"dX c #FFEBD3",
"fX c #FFEED9",
"gX c #FFF0DE",
"hX c #FEF2E3",
"jX c #FDFAF1",
"kX c None",
/* pixels */
"kXkXkXkXkXkXkXkXkXkXkXkXkXkXkXkXkXkXkXkXkXkXkXkXkXkXkXkXkXkXkXkXkXkXkXkXkXkXkXkXkXkXkXkXkXkXkXkXkXkX",
"kXkXkXkXkXkXkXkXkXkXkXkXkXkXkXkXkXkXkXkXkXkXkXkXkXkXkXkXkXkXkXkXkXkXkXkXkXkXkXkXkXkXkXkXkXkXkXkXkXkX",
"kXkXkXkXkXkXkXkXkXkXkXkXkXkXkXkXkXkXkXkXkXkXkXkXkXkXkXkXkXkXkXkXkXkXkXkXkXkXkXkXkXkXkXkXkXkXkXkXkXkX",
"kXkXkXkXkXkXkXkXkXkXkXkXkXkXkXkXkXkXkXkXkXkXkXkXkXkXkXkXkXkXkXkXkXkXkXkXkXkXkXkXkXkXkXkXkXkXkXkXkXkX",
"kXkXkXkXkXkXkXkXkXkXkXkXkXkXkXkXkXkXkXkXkXkXkXkXkXkXkXkXkXkXkXkXkXkXkXkXkXkXkXkXkXkXkXkXkXkXkXkXkXkX",
"kXkXkXkXkXkXkXkXkXkXkXkXkXkXkXkXkXkXkXkXkXkXkXkXkXkXkXkXkXkXkXkXkXkXkXkXkXkXkXkXkXkXkXkXkXkXkXkXkXkX",
"kXkXkXkXkXkXkXkXkX*X).>X>X*XkXkXkXkXkXkXkXkXkXkXkXkXkXkXkXkXkXkXkXkXkXkXkXkXkXkXkXkXkXkXkXkXkXkXkXkX",
"kXkXkXkXkXkXkXkXkX( R 0 Q x.c.z.Y.kXkXkXkX8XU.;XY.).).kXkXkXkXkXkXkXkXkXkXf.L.g.3.kXkXkXkXkXkXkXkXkX",
"kXkXkXkXkXkXkXkX@X0 b s - ; 9 ! { z.v.).K.).R.:X}.E._.:X).K.g.kXkXL.).P.z.<.V u B kXkXkXkXkXkXkXkXkX",
"kXkXkXkXkXkXkXkXd.8 d f h 1 ; - i ] z.v.V.~.:X(.!.1X<X:X1X_._.E.P.v.z.{ 1 : , < ! 2.kXkXkXkXkXkXkXkX",
"kXkXkXkXkXkXkXkXd.0 f f g a > , n c.Z.P.S.!.5X0X'.0X2X0XqX7X:X`.8.c.{ : , b h / ] | kXkXkXkXkXkXkXkX",
"kXkXkXkXkXkXkXkX3.Q f / ~ p n 7.Z.`.'.}.W.^.'.eXeX0X<XyX1X5X:X:Xv.P.8.] i h k j T 2.kXkXkXkXkXkXkXkX",
"kXkXkXkXkXkXkXkX>.Q s ~ 2.E.[.3X1X}.<X1X:X<XD.4XpX5X<XsX<XwX^.3X>X:X>X*X<.p h j ~ 4.kXkXkXkXkXkXkXkX",
"kXkXkXkXkXkXkXkX,.Q T 8.`.5X0X5X[.).T.9X6XpX3X!.yXsX<XaX<XeX~.qX6X9X9XqX;XT a g <.J.kXkXkXkXkXkXkXkX",
"kXkXkXkXkXkXkXkX3.R T 8.}.3X5X:X3X3X6X;X;XpXyX<X`.pXwXeX].wXP.qX:X0XeXwX>X8.u p <.4.kXkXkXkXkXkXkXkX",
"kXkXkXkXkXkXkXkX>.1.x._.:X3X1X:X_.`.R.b.{ [.5X2XC.5XpX:XW.5XF.1X^.{.3X3X3X:X .i R 4.kXkXkXkXkXkXkXkX",
"kXkXkXkXkXkXkXkXd.T.K.E.}.{.`.Q.A.M.X.' O.M.R.W.N.G.7Xb.C.(.W.#.' !.^.{.<X:Xj.C m H.kXkXkXkXkXkXkXkX",
"kXkXkXkXkXkXkXkX*XJ.K.E.~.^.A.N.k.t.@.@...t.k.n.C.M.W.#.+.!.#.z u : y./.:X<X(.t.| *XkXkXkXkXkXkXkXkX",
"kXkXkXkXkXkXkXh.g.p.v.R.!.A.M.k.@.P Z z z A o.+.k.u.C.y...N.Y S A S X.N.(.|.1X!.R.kXkXkXkXkXkXkXkXkX",
"kXkXkXkXkXkX$X$X-XY.E.W.D.M.u.O.K ` ] z.j.u F @.O.t.N.u.y.o.Y S G ..+.m.C./.{.^.1XkXkXkXkXkXkXkXkXkX",
"kXkXkXkXkXkX$Xg.U.Y.`.F.N.u. .R X $     X 1.c ' %.%.B.y.%.Y M 2.R W ' $.N.F.(.!.A.kXkXkXkXkXkXkXkXkX",
"kXkXkXkXkXkX@X=X,X1X{.(.N.' 8 * e e o $ o X W  .%.%.m.%.%.! @ & $ $ . < i.S.N.k.t.).kXkXkXkXkXkXkXkX",
"kXkXkXkXkXkX#XU.J.K.Z.A.m.v = % iXiX& % % & 0 7.n.B.B.k.7.Q r iX& $ % o 8 j.!.(.1X6XkXkXkXkXkXkXkXkX",
"kXkXkXkXkXh.d.:.J.).R.k.t.A X 4 e o o o . w 8 b.C././.C.b.9 e iX& %   2 ; $.S.u.t.P.kXkXkXkXkXkXkXkX",
"kXkXkXkXkX#Xd.U.>X}.R.m.u.U * 5 . O + 4 2 q.9 W.'.}.|.(.S.; 4 . . + 2 9.y j.N./.Q.l.E.kXkXkXkXkXkXkX",
"kXkXkXkXs.#XY.L.p.]  .o.o. .9 w w.9.q.oX+Xe.3.[.1XqXqX3XS.8 O 4 5 q.OX X%Xj.M.F.'.3X1XkXkXkXkXkXkXkX",
"kXkXkXkX@Xh.:.1.x.6X0X4X1X0X=X6 q.oX+X+X.X0 T.>X5XeXyXrXQ.] 9..Xq.oX+Xw.,.K.k.%.u.~.qXkXkXkXkXkXkXkX",
"kXkXkXkX$X;.} K.4X}.~.^.<XyXsXhXuX%Xt t $X6X;X3XrXpXdXdX<XR.( 0.OXoXr.1.eXsX0X^.B.N.W.kXkXkXkXkXkXkX",
"kXkXkXkXg.( J.).`.<X|.1X1X0XsXdXfXpXyXwX7X<X7XwXdXgXhXgXwXW.W.:X0XtXgXjXdX4X(.2X|.t.U ;XkXkXkXkXkXkX",
"kXkXkXkXh.:.U.T.R.R.).<X(.].<X4X7X5X|.]./.(.4XwX6X&X&XI._.<X|.].|.0XsXsXyX<X^.B.B.F.' p.kXkXkXkXkXkX",
"kXkXkXkXh.:.L.J.7.{ | 7.z.V.V.G.G.A.M.Z.E.2XrXrX~ f 6.*.&.0X0X{.F.F.|.<X].F.G.B.o.t.V.2.kXkXkXkXkXkX",
"kXkXkXkXkXa.( 0 8 ] ' ' 7.7.c.K.c.b.l.J.;X4XeXpX6XT 6./ 4XyXeX{.B.m.B.N.u.m.l.@.H D i.3.kXkXkXkXkXkX",
"kXkXkXkXkXd.) 0 :.1.] | j.J ] E V V V } a.V.'.<X'.#.~ m.(.|.{.F.o.Y ..o.X.L u u p H { 3.kXkXkXkXkXkX",
"kXkXkXkXkXh.:.3.>.R W E E _ N _ l 8 > 0 W C U #.O.P i ..y.%.o.O.l n K D L u n v z z E kXkXkXkXkXkXkX",
"kXkXkXkXkXkXf.) R R } [ W _ C v l M > > N c S F L G i K Y H F I i u u x I D G z z  .x.kXkXkXkXkXkXkX",
"kXkXkXkXkXkXkX:.R ( 1.p.} W B v _ v 7 l M M c c G ^ K K u u z v D Z D Z S H O.F Y ' kXkXkXkXkXkXkXkX",
"kXkXkXkXkXkXkX,.) :.1.[ } } ] ] B B M M v D c S @.@.+...Z x x z A Z A I Y ..I O.l.kXkXkXkXkXkXkXkXkX",
"kXkXkXkXkXkXkXkXd.>.1.( ) } ] } ` _ ` E N J S S L X...H Z Z Z Z Z S H I @.%.#.+.kXkXkXkXkXkXkXkXkXkX",
"kXkXkXkXkXkXkXkXkXkXkX-.;.) ( ` ] ` ` ' _ _ _ F F L _ G Z Z A S H L Y I O.v.kXkXkXkXkXkXkXkXkXkXkXkX",
"kXkXkXkXkXkXkXkXkXkXkXkXkXkX( W m m M  .i.' J N K ^ ^ N D K +.V.b.l.' c.kXkXkXkXkXkXkXkXkXkXkXkXkXkX",
"kXkXkXkXkXkXkXkXkXkXkXkXkXkXf.^ M _ l.|.1XA.i.J > - - 8 S.|.4X0XqX5X6XY.kXkXkXkXkXkXkXkXkXkXkXkXkXkX",
"kXkXkXkXkXkXkXkXkXkXkXkXkXkXR M c.7XwXpXsXqXF.k.b @ q E.|.wXeXsXgXaXqX8X=XkXkXkXkXkXkXkXkXkXkXkXkXkX",
"kXkXkXkXkXkXkXkXkXkXkXkXkXq 1 U.4XyXyXdXhXsX7X<Xm.- a.c.2X0XyXaXgXdXaXqX8X$XkXkXkXkXkXkXkXkXkXkXkXkX",
"kXkXkXkXkXkXkXkXkXkXkXkXkXq >.f.7XwXwXsXfXaX0X7X!.N W a.4X4XeXyXaXrXrX9X1XL.kXkXkXkXkXkXkXkXkXkXkXkX",
"kXkXkXkXkXkXkXkXkXkXkXkXkXkXkXU.}.1X7XwXeXeX<X].C.O.7 J.(.2X7X7X0X0X0X<XQ.P.kXkXkXkXkXkXkXkXkXkXkXkX",
"kXkXkXkXkXkXkXkXkXkXkXkXkXkXkXg.E.D.Q.^.!.].!.D.m.t.R a.V.(.].|.].^.^.S.k.$.kXkXkXkXkXkXkXkXkXkXkXkX",
"kXkXkXkXkXkXkXkXkXkXkXkXkXkXkX>.1.X...y.@.t.u.@.o.2.kX:.} t.X.y.u.y.%.%.I $.kXkXkXkXkXkXkXkXkXkXkXkX",
"kXkXkXkXkXkXkXkXkXkXkXkXkXkXkX-.q , D F A S X.c { kXkXkXq m l K S A D D ' 1.kXkXkXkXkXkXkXkXkXkXkXkX",
"kXkXkXkXkXkXkXkXkXkXkXkXkXkXkXkX-.q q M , u ^ [ kXkXkXkXkX( R ] C v ] 2.h.kXkXkXkXkXkXkXkXkXkXkXkXkX",
"kXkXkXkXkXkXkXkXkXkXkXkXkXkXkXkXkXkXkXkX-.) kXkXkXkXkXkXkXkXkXkXkXkXkXkXkXkXkXkXkXkXkXkXkXkXkXkXkXkX"
};
